<svg width="32" height="32" viewBox="0 0 32 32" fill="none" xmlns="http://www.w3.org/2000/svg">
<path d="M24.9733 19.56L19.44 25.0934C19.2267 25.3067 19.0267 25.72 18.9733 26.0134L18.6667 28.1334C18.56 28.8934 19.0933 29.44 19.8533 29.32L21.9733 29.0134C22.2667 28.9734 22.68 28.76 22.8933 28.5467L28.4267 23.0134C29.3733 22.0667 29.8267 20.9467 28.4267 19.5467C27.04 18.16 25.9333 18.6 24.9733 19.56Z" fill="white"/>
<path d="M24.1867 20.3467C24.6533 22.0267 25.9733 23.3333 27.6533 23.8133L24.1867 20.3467Z" fill="white"/>
<path d="M2.70667 19.5067C2.70667 19.5467 2.68 19.6 2.68 19.64C3.90667 22.0934 5.90667 24.1067 8.36 25.32C8.4 25.32 8.45333 25.2934 8.49333 25.2934C8.04 23.7467 7.69333 22.16 7.44 20.5734C5.84 20.3067 4.25333 19.96 2.70667 19.5067Z" fill="white"/>
<path d="M25.4267 8.57334C24.1733 5.94667 22.0533 3.82667 19.44 2.58667C19.92 4.17334 20.32 5.8 20.5867 7.42667C22.2133 7.69334 23.84 8.08 25.4267 8.57334Z" fill="white"/>
<path d="M2.57333 8.57336C4.17333 8.09336 5.8 7.69336 7.42667 7.42669C7.69333 5.84003 8.02667 4.26669 8.48 2.72003C8.44 2.72003 8.38667 2.69336 8.34667 2.69336C5.84 3.93336 3.8 6.02669 2.57333 8.57336Z" fill="white"/>
<path d="M18.4267 7.14671C18.1067 5.41337 17.7067 3.68004 17.1333 2.00004C17.1067 1.90671 17.1067 1.82671 17.0933 1.72004C16.1067 1.48004 15.0667 1.33337 14 1.33337C12.92 1.33337 11.8933 1.48004 10.8933 1.73337C10.88 1.82671 10.8933 1.90671 10.8667 2.01337C10.3067 3.69337 9.89333 5.41337 9.57333 7.14671C12.52 6.82671 15.48 6.82671 18.4267 7.14671Z" fill="white"/>
<path d="M7.14667 9.57336C5.4 9.89336 3.69334 10.3067 2 10.8667C1.90667 10.8934 1.82667 10.8934 1.73334 10.9067C1.48 11.8934 1.33334 12.9334 1.33334 14C1.33334 15.08 1.48 16.1067 1.73334 17.1067C1.82667 17.12 1.90667 17.1067 2.01334 17.1334C3.69334 17.6934 5.41334 18.1067 7.16 18.4267C6.82667 15.48 6.82667 12.52 7.14667 9.57336Z" fill="white"/>
<path d="M26.2667 10.9067C26.1733 10.9067 26.0933 10.8934 25.9867 10.8667C24.3067 10.3067 22.5733 9.89336 20.84 9.57336C21.1733 12.52 21.1733 15.48 20.84 18.4134C22.5733 18.0934 24.3067 17.6934 25.9867 17.12C26.08 17.0934 26.16 17.1067 26.2667 17.0934C26.5067 16.0934 26.6667 15.0667 26.6667 13.9867C26.6667 12.9334 26.52 11.9067 26.2667 10.9067Z" fill="white"/>
<path d="M9.57333 20.8533C9.89333 22.6 10.2933 24.32 10.8667 26C10.8933 26.0933 10.88 26.1733 10.8933 26.28C11.8933 26.52 12.92 26.6666 14 26.6666C15.0667 26.6666 16.1067 26.52 17.0933 26.2666C17.1067 26.1733 17.1067 26.0933 17.1333 25.9866C17.6933 24.3066 18.1067 22.5866 18.4267 20.84C16.96 21 15.48 21.12 14 21.12C12.52 21.12 11.04 21.0133 9.57333 20.8533Z" fill="white"/>
<path d="M9.26667 9.26667C8.86667 12.4133 8.86667 15.5867 9.26667 18.7467C12.4133 19.1467 15.5867 19.1467 18.7467 18.7467C19.1467 15.6 19.1467 12.4267 18.7467 9.26667C15.5867 8.86667 12.4133 8.86667 9.26667 9.26667Z" fill="white"/>
</svg>
