<?xml version="1.0" encoding="utf-8"?>
<!-- Generator: Adobe Illustrator 23.1.0, SVG Export Plug-In . SVG Version: 6.00 Build 0)  -->
<svg version="1.1" id="Layer_1" xmlns="http://www.w3.org/2000/svg" xmlns:xlink="http://www.w3.org/1999/xlink" x="0px" y="0px"
	 viewBox="0 0 595.28 841.89" style="enable-background:new 0 0 595.28 841.89;" xml:space="preserve">
<style type="text/css">
	.st0{fill:none;stroke:#FFFFFF;stroke-width:6;stroke-miterlimit:10;}
	.st1{fill:none;stroke:#FFFFFF;stroke-width:7;stroke-miterlimit:10;}
	.st2{fill:#FFFFFF;}
	.st3{fill:none;stroke:#FFFFFF;stroke-width:2;stroke-miterlimit:10;}
	.st4{fill:none;stroke:#FFFFFF;stroke-width:5;stroke-miterlimit:10;}
	.st5{fill:none;stroke:#164270;stroke-width:5;stroke-miterlimit:10;}
	.st6{fill:none;stroke:#FFFFFF;stroke-width:4;stroke-miterlimit:10;}
	.st7{fill:none;stroke:#FFFFFF;stroke-width:3.65;stroke-miterlimit:10;}
</style>
<circle class="st0" cx="298.42" cy="420.7" r="277.6"/>
<circle class="st1" cx="298.52" cy="424.55" r="199.35"/>
<g>
	<path class="st2" d="M211.98,654.14l-4.56-1.71l5.95-15.84c0.95-2.52,1.81-4.21,2.59-5.08c0.78-0.87,1.75-1.43,2.89-1.68
		c1.15-0.25,2.36-0.14,3.65,0.34c2.63,0.99,4.43,2.98,5.42,5.98l-4.43,1.84c-0.42-1.09-0.83-1.88-1.23-2.35
		c-0.4-0.47-0.84-0.8-1.32-0.98c-0.49-0.18-0.93-0.11-1.32,0.21s-0.85,1.18-1.38,2.58L211.98,654.14z"/>
	<path class="st2" d="M184.29,641.63l-4.24-2.29l12.15-22.42l4.24,2.3L184.29,641.63z"/>
	<path class="st2" d="M159.43,626.64l-12.42-9.15l19.67-11.39l-6.84-5.03l2.77-3.75l12.55,9.24l-19.55,11.31l6.68,4.92
		L159.43,626.64z"/>
	<path class="st2" d="M129.85,602.6l-10.87-10.95l21.19-8.23l-5.98-6.03l3.31-3.28l10.98,11.06l-21.06,8.16l5.84,5.89L129.85,602.6z
		"/>
	<path class="st2" d="M98.74,566.59l-2.81-4.04l15.33-22.61l2.88,4.14l-3.17,4.64l5.94,8.54l5.5-1.3l2.88,4.14L98.74,566.59z
		 M102.87,560.68l9.14-2.19l-3.9-5.6L102.87,560.68z"/>
	<path class="st2" d="M79.04,534.21l-2.22-4.99l5.3-8.23l-9.66-1.58l-2.22-4.98l14.58,2.36l8.5-13.2l2.22,4.99l-5.8,9.01l10.58,1.71
		l2.24,5.02l-15.52-2.53L79.04,534.21z"/>
	<path class="st2" d="M58,447.99l3.6,3.17c-1.59,1.47-2.3,2.86-2.13,4.15c0.08,0.63,0.31,1.13,0.7,1.49
		c0.39,0.36,0.8,0.51,1.22,0.46c0.42-0.05,0.81-0.25,1.15-0.58c0.46-0.45,1.39-1.77,2.81-3.94c1.31-2.03,2.13-3.27,2.49-3.71
		c0.86-1.1,1.72-1.91,2.57-2.43s1.81-0.85,2.87-0.98c2.08-0.26,3.88,0.24,5.41,1.51c1.53,1.26,2.44,3.05,2.73,5.36
		c0.23,1.8-0.02,3.43-0.73,4.87c-0.71,1.45-1.96,2.77-3.73,3.96L74,457.58c2.08-1.5,3.02-3.04,2.83-4.62
		c-0.1-0.83-0.43-1.49-0.98-1.99c-0.55-0.5-1.14-0.71-1.77-0.63c-0.57,0.07-1.12,0.36-1.64,0.85s-1.28,1.54-2.28,3.14
		c-1.9,3.04-3.41,5.04-4.53,6c-1.12,0.96-2.29,1.51-3.5,1.67c-1.75,0.22-3.34-0.26-4.77-1.44c-1.42-1.18-2.26-2.75-2.51-4.71
		c-0.16-1.26-0.02-2.5,0.42-3.72C55.71,450.89,56.62,449.52,58,447.99z"/>
	<path class="st2" d="M53.35,422.71l0.22-4.92l9.61,0.42l0.37-8.5l-9.61-0.42l0.22-4.9l25.47,1.12l-0.22,4.9l-11.17-0.49l-0.37,8.5
		l11.17,0.49l-0.22,4.92L53.35,422.71z"/>
	<path class="st2" d="M59.55,370.14l1.14-4.79l27.07-3.66l-1.16,4.91l-5.57,0.73l-2.4,10.12l4.63,3.23l-1.16,4.91L59.55,370.14z
		 M66.71,369.27l7.73,5.35l1.57-6.64L66.71,369.27z"/>
	<path class="st2" d="M71.24,332.36l2.02-4.49l8.77,3.95l3.49-7.76l-8.77-3.95l2.01-4.47l23.25,10.46l-2.01,4.47l-10.2-4.59
		l-3.49,7.76l10.2,4.59l-2.02,4.49L71.24,332.36z"/>
	<path class="st2" d="M92.11,292.19l2.9-4.25c1.59-2.33,2.93-3.84,4.01-4.55c1.09-0.7,2.32-1.03,3.69-0.97
		c1.37,0.06,2.72,0.54,4.04,1.43c1.38,0.94,2.31,2.07,2.79,3.36c0.48,1.3,0.5,2.78,0.07,4.44l12.77,1.4l-2.99,4.38l-12.15-1.35
		l-0.25,0.37l8.92,6.09l-2.74,4.01L92.11,292.19z M103.08,293.8l0.86-1.26c0.87-1.27,1.3-2.27,1.29-2.98
		c-0.01-0.71-0.4-1.33-1.17-1.86c-0.46-0.31-0.94-0.47-1.44-0.46c-0.5,0.01-0.96,0.16-1.39,0.46s-1,0.98-1.72,2.05l-0.75,1.1
		L103.08,293.8z"/>
	<path class="st2" d="M116.49,260.37l3.26-3.55l18.79,17.24l-3.26,3.55L116.49,260.37z"/>
	<path class="st2" d="M138.26,238.77l4.49-3.59c2.89-2.32,5.33-3.68,7.31-4.09c1.98-0.41,4.07-0.17,6.27,0.72
		c2.2,0.89,4.17,2.41,5.89,4.56c1.23,1.53,2.1,3.15,2.62,4.84c0.52,1.69,0.67,3.32,0.45,4.89c-0.22,1.57-0.72,2.93-1.5,4.09
		c-0.79,1.16-2.47,2.77-5.04,4.84l-4.56,3.65L138.26,238.77z M144.94,239.41L155,251.97l1.76-1.41c1.73-1.39,2.83-2.59,3.29-3.61
		s0.57-2.2,0.31-3.54c-0.26-1.34-0.93-2.69-2.03-4.06c-1.69-2.11-3.6-3.28-5.71-3.5c-1.9-0.2-4.03,0.65-6.39,2.53L144.94,239.41z"/>
	<path class="st2" d="M182.48,208.43l4.35-2.3l20.57,17.98l-4.46,2.35l-4.21-3.72l-9.2,4.85l0.61,5.61l-4.46,2.35L182.48,208.43z
		 M187.84,213.25l1.06,9.34l6.03-3.18L187.84,213.25z"/>
	<path class="st2" d="M242.59,189.6l-2.34,4.2c-2.72-1.59-5.46-1.99-8.22-1.19c-2.41,0.7-4.2,2.09-5.36,4.16
		c-1.16,2.07-1.41,4.25-0.75,6.54c0.69,2.36,2.11,4.12,4.28,5.27c2.17,1.15,4.49,1.37,6.96,0.65c1.61-0.47,2.87-1.2,3.78-2.2
		c0.91-1,1.49-2.32,1.75-3.96l-7.09,2.06l-1.27-4.38l12.32-3.58l0.33,1.02c0.62,2.14,0.66,4.33,0.11,6.58
		c-0.55,2.24-1.56,4.13-3.03,5.65c-1.47,1.52-3.39,2.63-5.77,3.32c-2.54,0.74-4.97,0.84-7.28,0.32c-2.31-0.53-4.35-1.64-6.1-3.35
		c-1.75-1.71-2.97-3.74-3.66-6.1c-0.94-3.24-0.69-6.37,0.76-9.39c1.71-3.59,4.61-5.98,8.68-7.16c2.13-0.62,4.24-0.8,6.32-0.55
		C238.76,187.72,240.62,188.42,242.59,189.6z"/>
	<path class="st2" d="M267.61,181.08l4.79-0.56l2.98,25.32l-4.79,0.56L267.61,181.08z"/>
	<path class="st2" d="M327.56,180.64l5.09,0.74c2.76,0.4,4.71,0.94,5.85,1.63c1.14,0.69,1.99,1.65,2.52,2.89
		c0.54,1.24,0.69,2.65,0.46,4.24c-0.26,1.76-0.93,3.16-2.02,4.19c-1.09,1.03-2.46,1.66-4.1,1.89c-0.96,0.13-2.67,0.01-5.12-0.34
		l-1.55,10.69l-4.8-0.7L327.56,180.64z M330.93,191.2l1.53,0.22c1.2,0.17,2.05,0.21,2.54,0.11c0.49-0.1,0.9-0.33,1.23-0.69
		c0.33-0.36,0.53-0.82,0.61-1.38c0.14-0.98-0.13-1.74-0.82-2.3c-0.5-0.41-1.5-0.73-2.98-0.94l-1.36-0.2L330.93,191.2z"/>
	<path class="st2" d="M367.61,188.72l4.89,1.58c2.68,0.86,4.51,1.72,5.5,2.56c0.98,0.85,1.64,1.93,1.97,3.27
		c0.33,1.33,0.26,2.76-0.23,4.28c-0.51,1.59-1.33,2.8-2.44,3.63c-1.11,0.83-2.52,1.27-4.24,1.32l2.27,12.64l-5.05-1.63l-2.14-12.04
		l-0.42-0.14l-3.31,10.28l-4.62-1.49L367.61,188.72z M369.17,199.69l1.45,0.47c1.47,0.47,2.54,0.61,3.22,0.4
		c0.68-0.21,1.16-0.76,1.45-1.65c0.17-0.53,0.18-1.03,0.03-1.51c-0.15-0.48-0.42-0.88-0.83-1.2c-0.41-0.32-1.22-0.68-2.45-1.07
		l-1.27-0.41L369.17,199.69z"/>
	<path class="st2" d="M405.73,203.39l12.37,6.38l-2.18,4.22l-8.09-4.17l-2.11,4.1l8.09,4.17l-2.14,4.14l-8.09-4.17l-3.08,5.96
		l8.09,4.17l-2.18,4.24l-12.37-6.38L405.73,203.39z"/>
	<path class="st2" d="M438.18,222.24l12.44,9.13l-19.65,11.42l6.84,5.02l-2.76,3.76l-12.56-9.22l19.53-11.34l-6.68-4.91
		L438.18,222.24z"/>
	<path class="st2" d="M468.25,246.79l3.46,3.36l-17.76,18.29l-3.46-3.36L468.25,246.79z"/>
	<path class="st2" d="M489.22,269.15l3.46,4.59c2.24,2.96,3.53,5.43,3.88,7.42c0.35,1.99,0.06,4.07-0.89,6.25
		c-0.95,2.18-2.52,4.1-4.73,5.76c-1.57,1.18-3.2,2.01-4.91,2.48c-1.71,0.47-3.34,0.58-4.9,0.32s-2.91-0.8-4.05-1.62
		c-1.14-0.82-2.7-2.54-4.7-5.18l-3.52-4.66L489.22,269.15z M488.39,275.82l-12.83,9.7l1.36,1.8c1.34,1.77,2.51,2.9,3.52,3.39
		c1.01,0.49,2.18,0.63,3.53,0.41c1.34-0.22,2.72-0.86,4.12-1.92c2.16-1.63,3.38-3.5,3.66-5.61c0.25-1.9-0.54-4.05-2.35-6.46
		L488.39,275.82z"/>
	<path class="st2" d="M514.6,307.01l6.35,12.38l-4.23,2.17l-4.15-8.1l-4.1,2.1l4.15,8.1l-4.15,2.13l-4.16-8.1l-5.97,3.06l4.16,8.1
		l-4.24,2.18l-6.35-12.38L514.6,307.01z"/>
	<path class="st2" d="M530.71,342.84l1.36,4.45l-12.85,15.34l16.04-4.91l1.42,4.64l-24.38,7.46l-1.37-4.46l12.8-15.32l-16,4.9
		l-1.42-4.64L530.71,342.84z"/>
	<path class="st2" d="M541.49,385.9l1.8,13.98l-4.75,0.61l-0.59-4.61l-20.54,2.65l-0.63-4.88l20.54-2.65l-0.58-4.49L541.49,385.9z"
		/>
	<path class="st2" d="M542.64,456.15l-0.8,4.66l-18.53,2.8l16.51,8.91l-0.8,4.66l-25.85-0.13l0.8-4.63l16.33,0.05l-14.95-8.08
		l0.73-4.21l16.78-2.55l-15.39-5.5l0.81-4.66L542.64,456.15z"/>
	<path class="st2" d="M528.06,512.88l-1.82,4.57l-27.32-0.3l1.86-4.69l5.62,0.09l3.84-9.67l-4.12-3.87l1.86-4.69L528.06,512.88z
		 M520.85,512.7l-6.87-6.41l-2.52,6.34L520.85,512.7z"/>
	<path class="st2" d="M511.02,548.5l-2.62,4.15l-7.44-4.69l3.74,10.54l-3.11,4.93l-4.88-13.6l-17.15,0.73l3.07-4.87l13.78-0.61
		l-9.58-6.04l2.62-4.15L511.02,548.5z"/>
	<path class="st2" d="M488.11,581.16l-9.3,10.59l-3.59-3.16l3.07-3.49l-15.57-13.67l3.25-3.7l15.57,13.67l2.98-3.4L488.11,581.16z"
		/>
	<path class="st2" d="M455.66,613.51l-3.82,3.11l-23.7-13.59l3.91-3.18l4.86,2.82l8.07-6.57l-1.71-5.38l3.91-3.18L455.66,613.51z
		 M449.46,609.84l-2.87-8.95l-5.29,4.31L449.46,609.84z"/>
	<path class="st2" d="M411.25,613.88l12.28,22.35l-3.51,1.93c-2.04,1.12-3.6,1.81-4.69,2.06c-1.53,0.38-2.96,0.31-4.28-0.22
		c-1.32-0.53-2.34-1.44-3.06-2.75c-0.47-0.85-0.71-1.72-0.73-2.61c-0.02-0.89,0.21-1.86,0.68-2.92c-1.71,0.11-3.14-0.14-4.29-0.76
		c-1.15-0.61-2.09-1.57-2.81-2.88c-0.69-1.25-1-2.58-0.91-3.97c0.08-1.39,0.49-2.62,1.24-3.7c0.74-1.08,2.02-2.11,3.82-3.1
		L411.25,613.88z M412.37,626l-3.15-5.73l-1.07,0.59c-1.77,0.97-2.83,1.85-3.2,2.63c-0.37,0.78-0.32,1.6,0.15,2.45
		c0.53,0.96,1.31,1.52,2.33,1.68c1.03,0.16,2.38-0.22,4.05-1.14L412.37,626z M417.05,634.51l-2.59-4.71l-0.93,0.51
		c-1.04,0.57-1.69,1.21-1.95,1.92c-0.26,0.71-0.19,1.44,0.22,2.19c0.38,0.7,0.93,1.12,1.63,1.27c0.7,0.15,1.54-0.05,2.52-0.58
		L417.05,634.51z"/>
	<path class="st2" d="M387.07,653.73l-4.51,1.68l-8.92-23.89l4.51-1.69L387.07,653.73z"/>
</g>
<circle class="st0" cx="298.15" cy="424.2" r="124.68"/>
<path class="st3" d="M204.69,450.35c-2.25-8.22-3.46-16.86-3.46-25.8c0-53.73,43.56-97.28,97.28-97.28s97.28,43.56,97.28,97.28
	c0,8.72-1.15,17.18-3.3,25.22"/>
<path class="st4" d="M217.06,453.94c-3.31-9.17-5.11-19.07-5.11-29.38c0-47.81,38.76-86.57,86.57-86.57s86.57,38.76,86.57,86.57
	c0,11.01-2.06,21.54-5.8,31.23"/>
<path class="st4" d="M252.12,474.43c-0.54-1.13-0.52-1.15-1.03-2.32c-5.89-13.65-9.32-29.99-9.32-47.56
	c0-47.81,25.41-86.57,56.75-86.57s56.75,38.76,56.75,86.57c0,18.87-3.96,36.33-10.67,50.55"/>
<line class="st4" x1="298.52" y1="337.98" x2="298.52" y2="505.46"/>
<path class="st5" d="M243.29,404.59"/>
<path class="st5" d="M353.79,404.86"/>
<path class="st5" d="M243.03,442.74"/>
<path class="st5" d="M354.03,442.6"/>
<path class="st5" d="M300.04,363.2"/>
<path class="st5" d="M341.12,367.36"/>
<path class="st5" d="M298.12,363.2"/>
<path class="st5" d="M257.04,367.36"/>
<path class="st5" d="M254.67,479.52"/>
<path class="st5" d="M342.81,478.67"/>
<path class="st5" d="M243.29,366.59"/>
<path class="st5" d="M353.79,366.86"/>
<path class="st5" d="M243.03,404.74"/>
<path class="st5" d="M354.03,404.6"/>
<path class="st5" d="M300.04,325.2"/>
<path class="st5" d="M341.12,329.36"/>
<path class="st5" d="M298.12,325.2"/>
<path class="st5" d="M257.04,329.36"/>
<path class="st5" d="M254.67,441.52"/>
<path class="st5" d="M342.81,440.67"/>
<line class="st4" x1="383.42" y1="441.52" x2="211.95" y2="440.67"/>
<line class="st4" x1="382.77" y1="404.59" x2="214.27" y2="404.59"/>
<path class="st4" d="M367.58,371.35l-38.1-3.18c-20.61-1.72-41.32-1.72-61.93,0l-38.11,3.19"/>
<path class="st4" d="M340.33,478.29l-26.61,0.85c-10.4,0.33-20.81,0.33-31.22-0.01l-25.53-1.17"/>
<g>
	<path class="st2" d="M421.78,449.6c-0.49,0.01-1.18,0.04-1.79,0.08c-0.63,0.04-1.27,0.08-1.92,0.14c-1.29,0.11-2.58,0.24-3.88,0.4
		c-2.59,0.32-5.19,0.71-7.78,1.18c-5.18,0.94-10.32,2.19-15.39,3.68c-5.07,1.5-10.08,3.25-14.99,5.26c-4.9,2.03-9.7,4.32-14.38,6.83
		c-9.37,5.04-18.16,11.16-26.29,18.12c-8.05,7.04-15.39,14.93-21.87,23.53l-2.33-1.64c6.1-9.1,13.17-17.61,21.07-25.31
		c7.97-7.63,16.74-14.48,26.2-20.26c4.73-2.89,9.61-5.56,14.62-7.96c5.02-2.38,10.17-4.51,15.42-6.38
		c5.25-1.86,10.6-3.48,16.05-4.78c2.72-0.66,5.47-1.22,8.25-1.72c1.39-0.24,2.79-0.47,4.2-0.67c0.71-0.1,1.42-0.19,2.14-0.27
		c0.74-0.08,1.4-0.16,2.27-0.22L421.78,449.6z"/>
</g>
<g>
	<path class="st2" d="M174.26,438.61c0.87,0.06,1.53,0.13,2.27,0.22c0.72,0.08,1.43,0.17,2.14,0.27c1.41,0.2,2.81,0.42,4.2,0.67
		c2.78,0.5,5.53,1.07,8.25,1.72c5.45,1.3,10.8,2.91,16.05,4.78c5.25,1.87,10.4,4,15.42,6.38c5.01,2.4,9.89,5.07,14.62,7.96
		c9.47,5.78,18.24,12.64,26.2,20.26c7.9,7.71,14.96,16.21,21.07,25.31l-2.33,1.64c-6.48-8.6-13.82-16.5-21.87-23.53
		c-8.12-6.96-16.92-13.08-26.29-18.12c-4.68-2.52-9.48-4.81-14.38-6.83c-4.91-2-9.92-3.76-14.99-5.26
		c-5.07-1.49-10.22-2.74-15.39-3.68c-2.59-0.47-5.18-0.86-7.78-1.18c-1.3-0.16-2.59-0.29-3.88-0.4c-0.64-0.05-1.28-0.1-1.92-0.14
		c-0.61-0.04-1.3-0.07-1.79-0.08L174.26,438.61z"/>
</g>
<g>
	<path class="st2" d="M281.91,513.41c-3.44-3.47-7.1-6.78-10.81-9.97c-3.72-3.2-7.55-6.27-11.47-9.21
		c-7.85-5.85-16.03-11.27-24.64-15.82c-8.58-4.58-17.58-8.34-26.85-10.72c-4.64-1.15-9.34-2.03-14.05-2.37
		c-4.71-0.32-9.41-0.2-14.03,0.41l-0.83-6.95c5.19-0.44,10.38-0.32,15.48,0.28c5.1,0.62,10.08,1.81,14.93,3.26
		c9.69,3,18.81,7.36,27.38,12.48c8.59,5.09,16.63,10.99,24.28,17.3c3.82,3.16,7.53,6.45,11.12,9.86c3.59,3.41,7.09,6.89,10.42,10.59
		L281.91,513.41z"/>
</g>
<g>
	<path class="st2" d="M313.31,512.54c3.32-3.7,6.82-7.18,10.42-10.59c3.6-3.4,7.3-6.69,11.12-9.86c7.65-6.3,15.69-12.21,24.28-17.3
		c8.57-5.12,17.68-9.48,27.38-12.48c4.85-1.45,9.83-2.64,14.93-3.26c5.1-0.6,10.29-0.73,15.48-0.28l-0.83,6.95
		c-4.61-0.61-9.31-0.74-14.03-0.41c-4.71,0.34-9.41,1.22-14.05,2.37c-9.28,2.39-18.28,6.15-26.85,10.72
		c-8.61,4.55-16.79,9.96-24.64,15.82c-3.92,2.94-7.74,6.01-11.47,9.21c-3.72,3.2-7.37,6.5-10.81,9.97L313.31,512.54z"/>
</g>
<g>
	<path class="st2" d="M280.72,517.2c-6.14-5.8-13.18-10.71-20.46-15.02c-7.31-4.29-15.01-7.89-22.97-10.71
		c-7.95-2.85-16.17-4.87-24.48-6.15c-8.33-1.2-16.74-1.63-25.12-1.25l-0.14-5c8.7-0.06,17.4,0.71,25.93,2.27
		c8.52,1.64,16.88,4.03,24.9,7.25c8.03,3.19,15.73,7.15,22.99,11.79c7.24,4.66,14.12,9.85,20.19,16.02L280.72,517.2z"/>
</g>
<g>
	<path class="st2" d="M314.9,516.45c5.93-6.2,12.71-11.42,19.86-16.09c7.17-4.64,14.79-8.61,22.75-11.79
		c7.95-3.22,16.24-5.59,24.69-7.21c8.46-1.55,17.09-2.31,25.71-2.25l-0.14,5c-8.31-0.37-16.65,0.04-24.91,1.23
		c-8.24,1.26-16.39,3.26-24.27,6.11c-7.88,2.81-15.5,6.42-22.72,10.71c-7.19,4.31-14.12,9.25-20.13,15.08L314.9,516.45z"/>
</g>
<polygon class="st6" points="313.78,659.77 309.31,664.24 309.31,670.56 302.99,670.56 298.52,675.03 294.05,670.56 287.73,670.56 
	287.73,664.24 283.26,659.77 287.73,655.3 287.73,648.98 294.05,648.98 298.52,644.51 302.99,648.98 309.31,648.98 309.31,655.3 "/>
<polygon class="st2" points="310.56,526.77 307.03,530.3 307.03,535.29 302.04,535.29 298.52,538.81 294.99,535.29 290,535.29 
	290,530.3 286.47,526.77 290,523.24 290,518.25 294.99,518.25 298.52,514.73 302.04,518.25 307.03,518.25 307.03,523.24 "/>
<path class="st0" d="M244.5,232.61c0,0,73.63,51.43,96.62,74.74"/>
<path class="st0" d="M396.03,251.79c0,0,15.99,88.38,15.87,121.11"/>
<path class="st0" d="M492.46,377.93c0,0-54.61,71.31-78.9,93.25"/>
<path class="st0" d="M474.15,520.46c0,0-72.71,21.94-120.35,15.87"/>
<path class="st0" d="M475.15,520.46c0,0-72.71,21.94-120.35,15.87"/>
<path class="st0" d="M353.1,616.66c0,0-66.83-36.08-96.13-74.13"/>
<path class="st0" d="M200.3,599.07c0,0-21.13-72.95-14.53-120.52"/>
<path class="st0" d="M106.63,479.43c0,0,36.63-66.53,74.93-95.51"/>
<path class="st0" d="M123.76,332.02c0,0,71.97-24.27,119.78-19.74"/>
<path class="st0" d="M351.59,232.61c0,0-73.63,51.43-96.62,74.74"/>
<path class="st0" d="M200.07,252.79c0,0-15.99,88.38-15.87,121.11"/>
<path class="st0" d="M103.63,375.93c0,0,54.61,71.31,78.9,93.25"/>
<path class="st0" d="M123.95,520.46c0,0,72.71,21.94,120.35,15.87"/>
<path class="st0" d="M242.99,615.66c0,0,66.83-36.08,96.13-74.13"/>
<path class="st0" d="M395.79,599.07c0,0,21.13-72.95,14.53-120.52"/>
<path class="st0" d="M491.46,480.43c0,0-36.63-66.53-74.93-95.51"/>
<path class="st0" d="M476.39,332.71c0,0-72.09-23.9-119.88-19.12"/>
<circle class="st2" cx="182.94" cy="377.73" r="9.19"/>
<circle class="st2" cx="245.79" cy="232.4" r="9.19"/>
<circle class="st2" cx="200.23" cy="251.79" r="9.19"/>
<circle class="st2" cx="395.34" cy="251.67" r="9.08"/>
<circle class="st2" cx="200.23" cy="598.79" r="9.19"/>
<circle class="st2" cx="394.96" cy="598.79" r="9.19"/>
<circle class="st2" cx="350.59" cy="233.4" r="9.19"/>
<circle class="st2" cx="244.79" cy="615.4" r="9.19"/>
<circle class="st2" cx="350.59" cy="615.4" r="9.19"/>
<circle class="st2" cx="472.07" cy="522.04" r="9.19"/>
<circle class="st2" cx="473.07" cy="330.31" r="9.19"/>
<circle class="st2" cx="491.68" cy="481.48" r="9.19"/>
<circle class="st2" cx="491.68" cy="379.68" r="9.19"/>
<circle class="st2" cx="123.97" cy="521.04" r="9.19"/>
<circle class="st2" cx="122.97" cy="331.31" r="9.19"/>
<circle class="st2" cx="107.36" cy="476.48" r="9.19"/>
<circle class="st2" cx="105.36" cy="377.68" r="9.19"/>
<circle class="st2" cx="188.84" cy="315.54" r="9.19"/>
<circle class="st2" cx="141.2" cy="424.55" r="9.19"/>
<circle class="st2" cx="187.61" cy="534.23" r="9.19"/>
<circle class="st2" cx="406.02" cy="316.33" r="9.19"/>
<circle class="st2" cx="453.66" cy="425.34" r="9.19"/>
<circle class="st2" cx="407.25" cy="535.02" r="9.19"/>
<circle class="st2" cx="297.98" cy="581.46" r="9.19"/>
<circle class="st2" cx="298.6" cy="270.1" r="9.08"/>
<circle class="st2" cx="345.99" cy="310.58" r="9.08"/>
<circle class="st2" cx="250.98" cy="310.46" r="9.19"/>
<circle class="st2" cx="344.98" cy="539.46" r="9.19"/>
<circle class="st2" cx="249.98" cy="539.46" r="9.19"/>
<circle class="st2" cx="183.53" cy="474.29" r="9.19"/>
<circle class="st2" cx="412.94" cy="379.73" r="9.19"/>
<circle class="st2" cx="413.53" cy="476.29" r="9.19"/>
<polygon class="st2" points="388.24,507 320.64,524.26 313.17,533.86 383.7,514.6 "/>
<polygon class="st2" points="208.17,507 275.77,524.26 283.24,533.86 212.71,514.6 "/>
<line class="st7" x1="282.77" y1="507" x2="313.53" y2="507"/>
<path class="st2" d="M282.77,508.81l-0.63-1.04l0.63-2.13c0,0,1.18,2.64,0.63,2.89C282.84,508.79,282.77,508.81,282.77,508.81z"/>
</svg>
